<svg id="Layer_1" data-name="Layer 1" xmlns="http://www.w3.org/2000/svg" viewBox="0 0 800 800"><defs><style>.cls-1{fill:#06c;}</style></defs><path class="cls-1" d="M360.81,562.15l-51.46-51.8-17.2,17.31,68.66,69.11,147-148-17.2-17.3Z"/><path class="cls-1" d="M662.06,678.71H137.94A49.61,49.61,0,0,1,88.5,628.94V171.62c0-27.71,22.47-50.33,50-50.33H662.06a49.61,49.61,0,0,1,49.44,49.77V628.94A49.61,49.61,0,0,1,662.06,678.71ZM138.51,153A18.62,18.62,0,0,0,120,171.62V628.94a18.1,18.1,0,0,0,18,18.1H662.06a18.1,18.1,0,0,0,18-18.1V171.06a18.1,18.1,0,0,0-18-18.1Z"/><path class="cls-1" d="M199.48,236.07a74.08,74.08,0,0,1,36.78-21A73.26,73.26,0,0,1,314,237.29a70.81,70.81,0,0,0,54.3,26l212.08-4.2a23.59,23.59,0,0,1,25.46,18.17,24.24,24.24,0,0,1-4.71,22.11,21.31,21.31,0,0,1-16.71,7L369,310.8a71.9,71.9,0,0,0-48.51,23.05l-10,10.31a66.73,66.73,0,0,1-53.62,21.43l44.73-46.65-69.93-68.09-51.47,53.57a64.39,64.39,0,0,1,1.21-35.67A68.71,68.71,0,0,1,199.48,236.07Zm-17-16.68a110,110,0,0,0-24.66,42.85,98.67,98.67,0,0,0,14.69,84.5l59.69-62.25,35.84,34.85L210,379.83a127.5,127.5,0,0,0,47.29,12.61,105.45,105.45,0,0,0,70.2-31.87l10-10.31a57,57,0,0,1,31.8-15.86l215.44-4.34a48,48,0,0,0,33.42-14.24,45.83,45.83,0,0,0,11.18-42.59,47.26,47.26,0,0,0-49.32-38l-212.07,4.2a42.32,42.32,0,0,1-35.57-17.9,103.75,103.75,0,0,0-101.46-31.87A108.86,108.86,0,0,0,182.5,219.39Z"/></svg>