<svg xmlns="http://www.w3.org/2000/svg" width="95.68" height="84.182" viewBox="0 0 95.68 84.182"><defs><style>.a{fill:#f3fcff;}.b{fill:#f4961c;}.c{fill:#d1344c;}.d{fill:#4bb380;}</style></defs><g transform="translate(0 -5)"><g transform="translate(0 5)"><path class="a" d="M41.449,46.2H17.387a1.987,1.987,0,1,0,0,3.975H41.449a1.987,1.987,0,0,0,0-3.975Z" transform="translate(-4.469 -13.408)"/><path class="a" d="M41.449,86.4H17.387a1.987,1.987,0,1,0,0,3.975H41.449a1.987,1.987,0,0,0,0-3.975Z" transform="translate(-4.469 -25.074)"/><path class="a" d="M41.449,66.2H17.387a1.987,1.987,0,0,0,0,3.975H41.449a1.987,1.987,0,1,0,0-3.975Z" transform="translate(-4.469 -19.212)"/><path class="b" d="M106.249,46.2H82.187a1.987,1.987,0,1,0,0,3.975h24.062a1.987,1.987,0,0,0,1.987-1.987,2.03,2.03,0,0,0-1.987-1.987Z" transform="translate(-23.275 -13.408)"/><path class="c" d="M106.249,86.4H82.187a1.987,1.987,0,1,0,0,3.975h24.062a1.987,1.987,0,0,0,1.987-1.987,2.03,2.03,0,0,0-1.987-1.987Z" transform="translate(-23.275 -25.074)"/><path class="d" d="M106.249,66.2H82.187a1.987,1.987,0,0,0,0,3.975h24.062a1.987,1.987,0,0,0,1.987-1.987,2.03,2.03,0,0,0-1.987-1.987Z" transform="translate(-23.275 -19.212)"/><path class="a" d="M88.795,19.6H52.95a6.871,6.871,0,0,0-5.11,2.271,6.757,6.757,0,0,0-5.11-2.271H6.885A6.892,6.892,0,0,0,0,26.485v56.5a6.892,6.892,0,0,0,6.885,6.885H42.658a6.871,6.871,0,0,0,5.11-2.271,6.757,6.757,0,0,0,5.111,2.271H88.795a6.892,6.892,0,0,0,6.885-6.885v-56.5A6.849,6.849,0,0,0,88.795,19.6ZM42.871,86.249H7.1a3.3,3.3,0,0,1-3.265-3.265v-56.5A3.3,3.3,0,0,1,7.1,23.22H42.871a3.3,3.3,0,0,1,3.265,3.265v56.5a3.258,3.258,0,0,1-3.265,3.265ZM92.06,82.984a3.3,3.3,0,0,1-3.265,3.265H53.021a3.3,3.3,0,0,1-3.265-3.265h0v-56.5h0a3.3,3.3,0,0,1,3.265-3.265H88.795a3.3,3.3,0,0,1,3.265,3.265Z" transform="translate(0 -5.688)"/><path class="a" d="M71.538,0H44.992a2.186,2.186,0,0,0-.923.213L36.474,4.33a1.54,1.54,0,0,0,0,2.7l7.595,4.117a1.966,1.966,0,0,0,.923.213H71.325a5.8,5.8,0,0,0,5.891-5.11A5.678,5.678,0,0,0,71.538,0ZM73.6,6.033a2.129,2.129,0,0,1-2.129,1.7H46.7c-3.478-.142-3.052-4.117,0-4.117H71.609A2.065,2.065,0,0,1,73.6,6.033Z" transform="translate(-10.354 0)"/></g></g></svg>