<svg id="Layer_1" data-name="Layer 1" xmlns="http://www.w3.org/2000/svg" viewBox="0 0 800 800"><defs><style>.cls-1{fill:#e9e9e9;fill-rule:evenodd;}.cls-2,.cls-3{opacity:0.47;}.cls-3{fill:#5c6f82;isolation:isolate;}</style></defs><path class="cls-1" d="M664.34,400a273.7,273.7,0,0,0-44.55-149.85A265.66,265.66,0,0,0,501.16,150.8a259.54,259.54,0,0,0-152.73-15.35,262.72,262.72,0,0,0-135.34,73.82,271.46,271.46,0,0,0-72.35,138.1,274.85,274.85,0,0,0,15,155.83,268.64,268.64,0,0,0,97.36,121.05,260.38,260.38,0,0,0,333.78-33.54A272.56,272.56,0,0,0,664.34,400Z"/><g class="cls-2"><path class="cls-3" d="M506.6,339.21A109.54,109.54,0,0,0,489.18,279a106.22,106.22,0,0,0-47.28-40.1,103.74,103.74,0,0,0-61.16-6.49,105.14,105.14,0,0,0-54.35,29.33A108.58,108.58,0,0,0,297.22,317a110,110,0,0,0,5.88,62.45A107.49,107.49,0,0,0,342,428a104.4,104.4,0,0,0,133.43-12.94,107.38,107.38,0,0,0,23-34.77A109.54,109.54,0,0,0,506.6,339.21Z"/><g class="cls-2"><path class="cls-3" d="M400,669.73a260.57,260.57,0,0,0,156.72-52.48,162.73,162.73,0,0,0-53.51-98.16,156.22,156.22,0,0,0-206.47,0,162.73,162.73,0,0,0-53.51,98.16A260.71,260.71,0,0,0,400,669.73Z"/></g></g></svg>