<svg xmlns="http://www.w3.org/2000/svg" width="160" height="142.399" viewBox="0 0 160 142.399"><defs><style>.a{fill:#fff;}</style></defs><g transform="translate(0 -21.264)"><path class="a" d="M139.546,107.349c-7.677-21.174-26.772-36.6-49.083-40.33a4.122,4.122,0,0,0-1.217-.268c-.285-.015-.577-.013-.865-.026a63.275,63.275,0,0,0-8.382-.6c-26.651,0-50.695,16.8-59.547,41.224a20.694,20.694,0,0,0,0,41.386c8.852,24.42,32.9,41.222,59.547,41.222s50.7-16.8,59.546-41.224a20.693,20.693,0,0,0,0-41.384Zm-.242,33.644a13.72,13.72,0,0,1-1.92-.159l-3.291-.484-.971,3.181c-6.943,22.777-28.788,38.685-53.122,38.685s-46.178-15.908-53.123-38.685l-.971-3.181-3.29.484a12.947,12.947,0,1,1-1.92-25.749,13.172,13.172,0,0,1,1.909.16l3.3.49.973-3.189a54.866,54.866,0,0,1,30.81-34.013c-3.246,7.187,1.162,16.05,8.508,19.507,9.155,4.307,23.966,4.87,30.211-4.5,2.818-4.221.318-9.561-3.09-12.451-4.768-4.045-11.694-4.619-17.355-2.371-4.583,1.818-2.588,9.308,2.059,7.465,3.366-1.334,6.43-1.434,9.661.339,4.43,2.436.348,5.218-2.75,6.108-5.774,1.66-14.292.305-18.806-3.746-5.7-5.115,1.641-10.919,6.183-12.509a42.667,42.667,0,0,1,15.543-1.918c21.063,3,39.083,17.8,45.272,38.091l.973,3.189,3.3-.49a13.146,13.146,0,0,1,1.908-.16,12.954,12.954,0,1,1,0,25.907Z" transform="translate(0 -26.295)"/><path class="a" d="M133.207,207a3.872,3.872,0,0,0-3.871,3.871h0a7.478,7.478,0,0,1-14.957,0h0a3.871,3.871,0,1,0-7.742,0,15.22,15.22,0,0,0,30.441,0A3.87,3.87,0,0,0,133.207,207Z" transform="translate(-62.502 -108.865)"/><path class="a" d="M226.735,207a3.872,3.872,0,0,0-3.871,3.871h0a7.48,7.48,0,0,1-14.959,0h0a3.871,3.871,0,0,0-7.742,0,15.222,15.222,0,0,0,30.443,0A3.871,3.871,0,0,0,226.735,207Z" transform="translate(-117.319 -108.865)"/><path class="a" d="M186.431,265.219c-4.993,0-4.993,7.742,0,7.742S191.426,265.219,186.431,265.219Z" transform="translate(-107.077 -142.988)"/><path class="a" d="M299.063,40.593a3.873,3.873,0,0,0,2.863,6.477h16.452a3.871,3.871,0,0,0,0-7.742h-7.691l2.084-2.285,8.472-9.3a3.871,3.871,0,0,0-2.863-6.477H301.929a3.871,3.871,0,1,0,0,7.742h7.691l-2.084,2.286Z" transform="translate(-174.698)"/><path class="a" d="M331.7,114.936a3.875,3.875,0,0,0,3.543,2.307h9.519a3.871,3.871,0,0,0,0-7.742H344l3.624-3.982a3.87,3.87,0,0,0-2.86-6.477h-9.519a3.871,3.871,0,0,0,0,7.742H336l-3.624,3.982A3.88,3.88,0,0,0,331.7,114.936Z" transform="translate(-194.224 -45.587)"/></g></svg>