<svg id="Layer_1" data-name="Layer 1" xmlns="http://www.w3.org/2000/svg" viewBox="0 0 800 800"><defs><style>.cls-1{fill:#06c;}</style></defs><path class="cls-1" d="M363.17,556l-48.4-49.83L298.6,522.77l64.57,66.47L501.4,446.94l-16.17-16.65Z"/><path class="cls-1" d="M609.73,226.64H190.27V257.1H609.73Z"/><path class="cls-1" d="M609.73,327.26H190.27v30.46H609.73Z"/><path class="cls-1" d="M646.45,668.07H153.55c-25.69,0-46.51-21.43-46.51-47.87V180.34c0-26.66,21.14-48.41,47-48.41H646.45c25.69,0,46.51,21.43,46.51,47.87V620.2C693,646.64,672.14,668.07,646.45,668.07ZM154.07,162.39c-9.61,0-17.43,8.05-17.43,18V620.2c0,9.58,7.6,17.41,16.91,17.41h492.9c9.3,0,16.91-7.83,16.91-17.41V179.8c0-9.58-7.61-17.41-16.91-17.41Z"/></svg>